<svg xmlns="http://www.w3.org/2000/svg" viewBox="0 0 64 64"><g data-name="File Transfer-Smartphone-Files-Transfer-Technology"><path fill="#bddbff" d="M52 33a2 2 0 0 1-2-2V27H40a2.006 2.006 0 0 0-2 2V47a2.006 2.006 0 0 0 2 2H54a2.006 2.006 0 0 0 2-2V33zM35.41 53.59A1.955 1.955 0 0 1 36 55a2.006 2.006 0 0 1-2 2H30a2.015 2.015 0 0 1-2-2 2.006 2.006 0 0 1 2-2h4A1.955 1.955 0 0 1 35.41 53.59zM22 19a2.006 2.006 0 0 1-2-2V13H10a2.006 2.006 0 0 0-2 2V33a2.006 2.006 0 0 0 2 2H24a2.006 2.006 0 0 0 2-2V19z"/><path fill="#3d9ae2" d="M27,33V19a1,1,0,0,0-.293-.707l-6-6A1,1,0,0,0,20,12H10a3,3,0,0,0-3,3V33a3,3,0,0,0,3,3H24A3,3,0,0,0,27,33ZM21,15.414,23.586,18H22a1,1,0,0,1-1-1ZM9,33V15a1,1,0,0,1,1-1h9v3a3,3,0,0,0,3,3h3V33a1,1,0,0,1-1,1H10A1,1,0,0,1,9,33Z"/><rect width="12" height="2" x="11" y="22" fill="#3d9ae2"/><rect width="12" height="2" x="11" y="26" fill="#3d9ae2"/><rect width="12" height="2" x="11" y="30" fill="#3d9ae2"/><rect width="6" height="2" x="11" y="18" fill="#3d9ae2"/><path fill="#3d9ae2" d="M56.707,32.293l-6-6A1,1,0,0,0,50,26H40a3,3,0,0,0-3,3V47a3,3,0,0,0,3,3H54a3,3,0,0,0,3-3V33A1,1,0,0,0,56.707,32.293ZM51,29.414,53.586,32H52a1,1,0,0,1-1-1ZM54,48H40a1,1,0,0,1-1-1V29a1,1,0,0,1,1-1h9v3a3,3,0,0,0,3,3h3V47A1,1,0,0,1,54,48Z"/><rect width="12" height="2" x="41" y="36" fill="#3d9ae2"/><rect width="12" height="2" x="41" y="40" fill="#3d9ae2"/><rect width="12" height="2" x="41" y="44" fill="#3d9ae2"/><rect width="6" height="2" x="41" y="32" fill="#3d9ae2"/><path fill="#3d9ae2" d="M50 56a4 4 0 0 1-4 4H18a4 4 0 0 1-4-4V38H12V56a6.006 6.006 0 0 0 6 6H46a6.006 6.006 0 0 0 6-6V52H50zM14 8a4 4 0 0 1 4-4H46a4 4 0 0 1 4 4V24h2V8a6.006 6.006 0 0 0-6-6H18a6.006 6.006 0 0 0-6 6v2h2z"/><path fill="#3d9ae2" d="M30,58h4a3,3,0,0,0,0-6H30a3,3,0,0,0,0,6Zm0-4h4a1,1,0,0,1,0,2H30a1,1,0,0,1,0-2Z"/><rect width="2" height="2" x="25" y="6" fill="#3d9ae2"/><rect width="6" height="2" x="29" y="6" fill="#3d9ae2"/><path fill="#3d9ae2" d="M16 38v6a1 1 0 0 0 1 1H29.586l-2.293 2.293 1.414 1.414 4-4a1 1 0 0 0 0-1.414l-4-4-1.414 1.414L29.586 43H18V38zM48 24V18a1 1 0 0 0-1-1H34.414l2.293-2.293-1.414-1.414-4 4a1 1 0 0 0 0 1.414l4 4 1.414-1.414L34.414 19H46v5z"/></g></svg>